<?xml version="1.0" standalone="no"?>
<!DOCTYPE svg PUBLIC "-//W3C//DTD SVG 20010904//EN"
 "http://www.w3.org/TR/2001/REC-SVG-20010904/DTD/svg10.dtd">
<svg version="1.0" xmlns="http://www.w3.org/2000/svg"
 width="32.000000pt" height="32.000000pt" viewBox="0 0 32.000000 32.000000"
 preserveAspectRatio="xMidYMid meet">

<g transform="translate(0.000000,32.000000) scale(0.100000,-0.100000)"
fill="#000000" stroke="none">
<path d="M112 257 c-12 -13 -22 -31 -22 -40 0 -10 -8 -17 -19 -17 -10 0 -24
-7 -31 -15 -16 -20 3 -45 35 -45 33 0 36 -9 14 -52 -27 -52 -2 -47 26 5 11 20
23 37 28 37 4 0 7 -20 7 -45 0 -25 5 -45 10 -45 6 0 10 20 10 45 0 25 3 45 8
45 4 0 16 -17 27 -37 28 -52 53 -57 26 -5 -22 43 -19 52 14 52 32 0 51 25 35
45 -7 8 -21 15 -31 15 -12 0 -19 7 -19 18 0 26 -42 62 -71 62 -14 0 -35 -10
-47 -23z m82 -13 c9 -8 16 -24 16 -35 0 -16 -7 -19 -50 -19 -43 0 -50 3 -50
19 0 25 26 51 50 51 10 0 26 -7 34 -16z m66 -75 c0 -9 -54 -19 -100 -19 -46 0
-100 10 -100 19 0 3 45 6 100 6 55 0 100 -3 100 -6z"/>
</g>
</svg>
